# Blender v2.90.1 OBJ File: 'cube.blend'
# www.blender.org
mtllib cube.mtl
o Cube
v 1.000000 1.000000 1.000000
v 1.000000 1.000000 -1.000000
v 1.000000 -1.000000 1.000000
v 1.000000 -1.000000 -1.000000
v -1.000000 1.000000 1.000000
v -1.000000 1.000000 -1.000000
v -1.000000 -1.000000 1.000000
v -1.000000 -1.000000 -1.000000
vt 0.375000 0.000000
vt 0.625000 0.000000
vt 0.625000 0.250000
vt 0.375000 0.250000
vt 0.498031 0.923365
vt 0.498031 0.507240
vt 0.748972 0.507240
vt 0.748972 0.923365
vt 0.466632 0.071146
vt 0.714482 0.071146
vt 0.714482 0.473000
vt 0.466632 0.473000
vt 0.247090 0.923365
vt 0.247090 0.507240
vt -0.003851 0.923365
vt -0.003851 0.507240
vt 0.999913 0.507240
vt 0.999913 0.923365
vn 0.0000 0.0000 1.0000
vn 0.0000 -1.0000 0.0000
vn 0.0000 0.0000 -1.0000
vn 1.0000 0.0000 0.0000
vn 0.0000 1.0000 0.0000
vn -1.0000 0.0000 0.0000
usemtl Material
s off
f 1/1/1 5/2/1 7/3/1 3/4/1
f 4/5/2 3/6/2 7/7/2 8/8/2
f 6/9/3 2/10/3 4/11/3 8/12/3
f 2/13/4 1/14/4 3/6/4 4/5/4
f 6/15/5 5/16/5 1/14/5 2/13/5
usemtl Material.001
f 8/8/6 7/7/6 5/17/6 6/18/6
